<svg width="313" height="358" viewBox="0 0 313 358" fill="none" xmlns="http://www.w3.org/2000/svg">
<path opacity="0.2" d="M186.054 267.412L123.375 266.621C123.111 262.929 122.846 258.314 122.582 252.776C122.582 246.974 122.582 241.304 122.582 235.766C122.582 219.943 124.301 206.757 127.739 196.208C131.177 185.659 137.789 176.956 147.574 170.099C157.624 162.979 172.567 156.913 192.402 151.903C203.774 149.002 213.163 146.496 220.568 144.387C227.973 142.013 233.791 139.376 238.023 136.475C242.254 133.574 245.163 129.618 246.75 124.608C248.602 119.333 249.527 112.213 249.527 103.246C249.527 84.2586 241.99 72.7867 226.915 68.8309C219.51 66.7212 209.725 65.1389 197.559 64.084C185.393 63.0291 173.492 62.5017 161.855 62.5017C152.07 62.5017 141.624 62.8972 130.516 63.6884C119.408 64.2158 108.962 65.4026 99.1762 67.2486C89.3908 69.0947 81.4567 71.9956 75.3739 75.9514C69.2911 79.9072 66.2497 85.3134 66.2497 92.1702C66.2497 98.2357 68.2332 104.829 72.2002 111.949C76.4318 118.806 81.5889 124.871 87.6717 130.146L30.1496 162.979C21.1576 153.749 13.8847 142.673 8.3308 129.75C2.77693 116.828 0 103.115 0 88.6099C0 79.116 1.98352 69.3584 5.95057 59.337C10.1821 49.3156 17.0583 40.0854 26.5792 31.6464C36.3646 22.9436 49.5881 16.2188 66.2497 11.4718C78.4153 7.77974 92.8289 5.01067 109.49 3.16462C126.152 1.05487 143.607 0 161.855 0C177.459 0 193.195 0.923016 209.063 2.76905C224.932 4.6151 239.742 7.91159 253.494 12.6585C276.503 20.5702 292.107 32.1738 300.305 47.4696C308.768 62.5017 313 80.3028 313 100.873C313 128.036 307.314 150.189 295.942 167.33C284.834 184.472 265.792 196.076 238.816 202.141C232.469 203.46 225.725 204.647 218.584 205.702C211.444 206.757 205.096 208.471 199.542 210.844C193.989 213.218 190.286 217.305 188.435 223.107C186.319 229.7 185.261 239.194 185.261 251.589C185.261 254.226 185.261 256.863 185.261 259.501C185.526 262.138 185.79 264.775 186.054 267.412ZM155.112 358C143.21 358 133.954 354.308 127.342 346.924C120.995 339.54 117.821 330.837 117.821 320.815C117.821 310.003 121.392 301.036 128.532 293.916C135.673 286.532 144.665 282.84 155.508 282.84C166.88 282.84 175.872 286.268 182.484 293.125C189.36 299.982 192.798 309.08 192.798 320.42C192.798 331.76 189.36 340.858 182.484 347.715C175.872 354.572 166.748 358 155.112 358Z" fill="#00654F"/>
</svg>